<svg xmlns="http://www.w3.org/2000/svg" width="22" height="22" viewBox="0 0 22 22" fill="none">
  <path fill-rule="evenodd" clip-rule="evenodd" d="M10.9863 14.0671C7.44065 14.0671 4.41382 14.6034 4.41382 16.7502C4.41382 18.8971 7.4214 19.4526 10.9863 19.4526C14.5311 19.4526 17.5588 18.9154 17.5588 16.7695C17.5588 14.6236 14.5503 14.0671 10.9863 14.0671V14.0671Z" stroke="#272343" stroke-width="1.5" stroke-linecap="round" stroke-linejoin="round"/>
  <path fill-rule="evenodd" clip-rule="evenodd" d="M10.9862 11.0056C11.8195 11.0056 12.634 10.7585 13.3268 10.2956C14.0197 9.83264 14.5597 9.17466 14.8785 8.40484C15.1974 7.63501 15.2808 6.78792 15.1183 5.97068C14.9557 5.15343 14.5545 4.40275 13.9653 3.81355C13.3761 3.22435 12.6254 2.8231 11.8081 2.66054C10.9909 2.49798 10.1438 2.58142 9.37397 2.90029C8.60415 3.21916 7.94617 3.75915 7.48324 4.45197C7.02031 5.1448 6.77322 5.95934 6.77322 6.79259C6.76932 7.9059 7.20779 8.97518 7.99218 9.76524C8.77657 10.5553 9.84266 11.0015 10.956 11.0056H10.9862Z" stroke="#272343" stroke-width="1.429" stroke-linecap="round" stroke-linejoin="round"/>
</svg>